<?xml version="1.0" encoding="UTF-8" standalone="no"?>
<!DOCTYPE svg PUBLIC "-//W3C//DTD SVG 1.1//EN" "http://www.w3.org/Graphics/SVG/1.1/DTD/svg11.dtd">
<svg width="100%" height="100%" viewBox="0 0 256 256" version="1.1" xmlns="http://www.w3.org/2000/svg" xmlns:xlink="http://www.w3.org/1999/xlink" xml:space="preserve" xmlns:serif="http://www.serif.com/" style="fill-rule:evenodd;clip-rule:evenodd;stroke-linejoin:round;stroke-miterlimit:2;">
    <g id="画板1" transform="matrix(0.218803,0,0,0.101106,0,0)">
        <rect x="0" y="0" width="1170" height="2532" style="fill:none;"/>
        <g transform="matrix(4.570312,0,0,9.890625,-59.414062,-217.59375)">
            <path d="M256,62.301L256,237.699C256,252.767 243.767,265 228.699,265L53.301,265C38.233,265 26,252.767 26,237.699L26,62.301C26,47.233 38.233,35 53.301,35L228.699,35C243.767,35 256,47.233 256,62.301Z" style="fill:rgb(17,33,66);"/>
        </g>
        <g transform="matrix(4.570312,0,0,9.890625,-4.570312,-9.890625)">
            <path d="M89,188.745L89,225.81C89,230.33 85.33,234 80.81,234L39.75,234C30.505,234 23,226.495 23,217.25L23,155.25C23,150.145 27.145,146 32.25,146L70.255,146C70.666,146 71,146.334 71,146.745L71,179.76C71,184.86 74.14,188 79.24,188L88.255,188C88.666,188 89,188.334 89,188.745ZM71,146L71.003,146C71.001,146.08 71,146.16 71,146.24L71,146Z" style="fill:white;"/>
        </g>
        <g transform="matrix(4.570312,0,0,9.890625,329.0625,-9.890625)">
            <path d="M24.745,188L33.76,188C38.86,188 42,184.86 42,179.76L42,146.745C42,146.334 42.334,146 42.745,146L70.255,146C70.666,146 71,146.334 71,146.745L71,179.76C71,184.86 74.14,188 79.24,188L88.255,188C88.666,188 89,188.334 89,188.745L89,225.81C89,230.33 85.33,234 80.81,234L32.19,234C27.67,234 24,230.33 24,225.81L24,188.745C24,188.334 24.334,188 24.745,188ZM42,146.24C42,146.16 41.999,146.08 41.997,146L42,146L42,146.24ZM71,146L71.003,146C71.001,146.08 71,146.16 71,146.24L71,146Z" style="fill:white;"/>
        </g>
        <g transform="matrix(4.570312,0,0,9.890625,662.695312,-9.890625)">
            <path d="M24.745,188L33.76,188C38.86,188 42,184.86 42,179.76L42,146.745C42,146.334 42.334,146 42.745,146L80.75,146C85.855,146 90,150.145 90,155.25L90,217.25C90,226.495 82.495,234 73.25,234L32.19,234C27.67,234 24,230.33 24,225.81L24,188.745C24,188.334 24.334,188 24.745,188ZM42,146.24C42,146.16 41.999,146.08 41.997,146L42,146L42,146.24Z" style="fill:white;"/>
        </g>
        <g transform="matrix(4.50343,0,0,11.468916,-16.207889,-118.161403)">
            <path d="M236,55.029L236,100.971C236,114.233 223.329,125 207.723,125L59.277,125C43.671,125 31,114.233 31,100.971L31,55.029C31,41.767 43.671,31 59.277,31L207.723,31C223.329,31 236,41.767 236,55.029Z" style="fill:rgb(38,58,99);"/>
        </g>
        <g transform="matrix(11.425781,-0,0,-9.890625,-292.5,1562.71875)">
            <path d="M48,77.25L48,80.75C48,81.44 48.224,82 48.5,82L49.5,82C49.776,82 50,81.44 50,80.75L50,77.25C50,76.56 49.776,76 49.5,76L48.5,76C48.224,76 48,76.56 48,77.25ZM54.8,80L54.8,78C54.8,77.448 54.621,77 54.4,77L53.2,77C52.979,77 52.8,77.448 52.8,78L52.8,80C52.8,80.552 52.979,81 53.2,81L54.4,81C54.621,81 54.8,80.552 54.8,80ZM55.2,72.5L55.2,85.5C55.2,86.19 55.424,86.75 55.7,86.75L56.7,86.75C56.976,86.75 57.2,86.19 57.2,85.5L57.2,72.5C57.2,71.81 56.976,71.25 56.7,71.25L55.7,71.25C55.424,71.25 55.2,71.81 55.2,72.5ZM57.6,75.25L57.6,82.75C57.6,83.44 57.824,84 58.1,84L59.1,84C59.376,84 59.6,83.44 59.6,82.75L59.6,75.25C59.6,74.56 59.376,74 59.1,74L58.1,74C57.824,74 57.6,74.56 57.6,75.25ZM60,67.75L60,90.25C60,90.94 60.224,91.5 60.5,91.5L61.5,91.5C61.776,91.5 62,90.94 62,90.25L62,67.75C62,67.06 61.776,66.5 61.5,66.5L60.5,66.5C60.224,66.5 60,67.06 60,67.75ZM62.4,57.25L62.4,100.75C62.4,101.44 62.624,102 62.9,102L63.9,102C64.176,102 64.4,101.44 64.4,100.75L64.4,57.25C64.4,56.56 64.176,56 63.9,56L62.9,56C62.624,56 62.4,56.56 62.4,57.25ZM64.8,62.75L64.8,95.25C64.8,95.94 65.024,96.5 65.3,96.5L66.3,96.5C66.576,96.5 66.8,95.94 66.8,95.25L66.8,62.75C66.8,62.06 66.576,61.5 66.3,61.5L65.3,61.5C65.024,61.5 64.8,62.06 64.8,62.75ZM67.2,53.25L67.2,104.75C67.2,105.44 67.424,106 67.7,106L68.7,106C68.976,106 69.2,105.44 69.2,104.75L69.2,53.25C69.2,52.56 68.976,52 68.7,52L67.7,52C67.424,52 67.2,52.56 67.2,53.25ZM69.6,34.25L69.6,123.75C69.6,124.44 69.824,125 70.1,125L71.1,125C71.376,125 71.6,124.44 71.6,123.75L71.6,34.25C71.6,33.56 71.376,33 71.1,33L70.1,33C69.824,33 69.6,33.56 69.6,34.25ZM72,51.25L72,106.75C72,107.44 72.224,108 72.5,108L73.5,108C73.776,108 74,107.44 74,106.75L74,51.25C74,50.56 73.776,50 73.5,50L72.5,50C72.224,50 72,50.56 72,51.25ZM74.4,65.25L74.4,92.75C74.4,93.44 74.624,94 74.9,94L75.9,94C76.176,94 76.4,93.44 76.4,92.75L76.4,65.25C76.4,64.56 76.176,64 75.9,64L74.9,64C74.624,64 74.4,64.56 74.4,65.25ZM76.8,70.75L76.8,87.25C76.8,87.94 77.024,88.5 77.3,88.5L78.3,88.5C78.576,88.5 78.8,87.94 78.8,87.25L78.8,70.75C78.8,70.06 78.576,69.5 78.3,69.5L77.3,69.5C77.024,69.5 76.8,70.06 76.8,70.75ZM79.2,62.25L79.2,95.75C79.2,96.44 79.424,97 79.7,97L80.7,97C80.976,97 81.2,96.44 81.2,95.75L81.2,62.25C81.2,61.56 80.976,61 80.7,61L79.7,61C79.424,61 79.2,61.56 79.2,62.25ZM81.6,72.75L81.6,85.25C81.6,85.94 81.824,86.5 82.1,86.5L83.1,86.5C83.376,86.5 83.6,85.94 83.6,85.25L83.6,72.75C83.6,72.06 83.376,71.5 83.1,71.5L82.1,71.5C81.824,71.5 81.6,72.06 81.6,72.75ZM84,69.75L84,88.25C84,88.94 84.224,89.5 84.5,89.5L85.5,89.5C85.776,89.5 86,88.94 86,88.25L86,69.75C86,69.06 85.776,68.5 85.5,68.5L84.5,68.5C84.224,68.5 84,69.06 84,69.75ZM86.4,73.75L86.4,84.25C86.4,84.94 86.624,85.5 86.9,85.5L87.9,85.5C88.176,85.5 88.4,84.94 88.4,84.25L88.4,73.75C88.4,73.06 88.176,72.5 87.9,72.5L86.9,72.5C86.624,72.5 86.4,73.06 86.4,73.75ZM88.8,76L88.8,82C88.8,82.69 89.024,83.25 89.3,83.25L90.3,83.25C90.576,83.25 90.8,82.69 90.8,82L90.8,76C90.8,75.31 90.576,74.75 90.3,74.75L89.3,74.75C89.024,74.75 88.8,75.31 88.8,76ZM91.2,76.5L91.2,81.5C91.2,82.19 91.424,82.75 91.7,82.75L92.7,82.75C92.976,82.75 93.2,82.19 93.2,81.5L93.2,76.5C93.2,75.81 92.976,75.25 92.7,75.25L91.7,75.25C91.424,75.25 91.2,75.81 91.2,76.5ZM93.6,76L93.6,82C93.6,82.69 93.824,83.25 94.1,83.25L95.1,83.25C95.376,83.25 95.6,82.69 95.6,82L95.6,76C95.6,75.31 95.376,74.75 95.1,74.75L94.1,74.75C93.824,74.75 93.6,75.31 93.6,76ZM96,77.25L96,80.75C96,81.44 96.224,82 96.5,82L97.5,82C97.776,82 98,81.44 98,80.75L98,77.25C98,76.56 97.776,76 97.5,76L96.5,76C96.224,76 96,76.56 96,77.25ZM100.4,80L100.4,78C100.4,77.448 100.221,77 100,77L98.8,77C98.579,77 98.4,77.448 98.4,78L98.4,80C98.4,80.552 98.579,81 98.8,81L100,81C100.221,81 100.4,80.552 100.4,80ZM102.8,80L102.8,78C102.8,77.448 102.621,77 102.4,77L101.2,77C100.979,77 100.8,77.448 100.8,78L100.8,80C100.8,80.552 100.979,81 101.2,81L102.4,81C102.621,81 102.8,80.552 102.8,80ZM105.2,80L105.2,78C105.2,77.448 105.021,77 104.8,77L103.6,77C103.379,77 103.2,77.448 103.2,78L103.2,80C103.2,80.552 103.379,81 103.6,81L104.8,81C105.021,81 105.2,80.552 105.2,80ZM107.6,80L107.6,78C107.6,77.448 107.421,77 107.2,77L106,77C105.779,77 105.6,77.448 105.6,78L105.6,80C105.6,80.552 105.779,81 106,81L107.2,81C107.421,81 107.6,80.552 107.6,80ZM50.41,79C50.403,79.081 50.4,79.164 50.4,79.25L50.4,81.75C50.4,82.44 50.624,83 50.9,83L51.9,83C52.176,83 52.4,82.44 52.4,81.75L52.4,79.25C52.4,79.164 52.397,79.081 52.39,79C52.397,78.919 52.4,78.836 52.4,78.75L52.4,76.25C52.4,75.56 52.176,75 51.9,75L50.9,75C50.624,75 50.4,75.56 50.4,76.25L50.4,78.75C50.4,78.836 50.403,78.919 50.41,79ZM47.6,78C47.6,77.448 47.421,77 47.2,77L46,77C45.779,77 45.6,77.448 45.6,78L45.6,80C45.6,80.552 45.779,81 46,81L47.2,81C47.421,81 47.6,80.552 47.6,80L47.6,78ZM45.2,78C45.2,77.448 45.021,77 44.8,77L43.6,77C43.379,77 43.2,77.448 43.2,78L43.2,80C43.2,80.552 43.379,81 43.6,81L44.8,81C45.021,81 45.2,80.552 45.2,80L45.2,78ZM110,78C110,77.448 109.821,77 109.6,77L108.4,77C108.179,77 108,77.448 108,78L108,80C108,80.552 108.179,81 108.4,81L109.6,81C109.821,81 110,80.552 110,80L110,78ZM112.4,78C112.4,77.448 112.221,77 112,77L110.8,77C110.579,77 110.4,77.448 110.4,78L110.4,80C110.4,80.552 110.579,81 110.8,81L112,81C112.221,81 112.4,80.552 112.4,80L112.4,78Z" style="fill:rgb(130,215,255);"/>
        </g>
    </g>
</svg>
