<?xml version="1.0" encoding="UTF-8" standalone="no"?>
<!DOCTYPE svg PUBLIC "-//W3C//DTD SVG 1.1//EN" "http://www.w3.org/Graphics/SVG/1.1/DTD/svg11.dtd">
<svg width="100%" height="100%" viewBox="0 0 128 128" version="1.1" xmlns="http://www.w3.org/2000/svg" xmlns:xlink="http://www.w3.org/1999/xlink" xml:space="preserve" xmlns:serif="http://www.serif.com/" style="fill-rule:evenodd;clip-rule:evenodd;stroke-linecap:round;stroke-linejoin:round;stroke-miterlimit:1.5;">
    <g transform="matrix(1,0,0,1,-178.257,0)">
        <g id="画板1" transform="matrix(2.66667,0,0,2.66667,178.257,0)">
            <rect x="0" y="0" width="48" height="48" style="fill:none;"/>
            <g transform="matrix(1.02128,0,0,1.02128,-1.02128,-1.02128)">
                <rect x="1" y="1" width="47" height="47" style="fill:rgb(157,166,168);"/>
            </g>
            <g transform="matrix(0.401226,0,0,0.41502,-74.4207,-1.98433)">
                <path d="M208.98,45.354C217.493,45.236 221.609,44.724 230.596,44.724C232.265,44.724 237.098,44.349 238.598,44.849C239.169,45.039 239.864,44.672 240.221,45.029C240.826,45.635 242.895,44.953 243.466,45.57C243.713,45.837 245.752,45.57 246.17,45.57C248.134,45.57 249.984,45.75 252.119,45.75C252.765,45.75 253.944,45.592 254.283,45.931C254.824,46.472 257.786,45.79 258.429,46.111C258.659,46.226 259.957,45.922 260.052,46.111C260.478,46.963 262.828,46.496 263.838,46.832C265.906,47.521 268.292,47.617 269.967,48.455C271.322,49.132 279.38,46.342 279.87,45.116C280.89,42.567 278.716,49.235 277.9,50.051C277.348,50.603 276.017,51.859 275.556,52.781C275.331,53.232 274.071,53.048 273.753,53.683C273.422,54.345 270.12,54.508 269.246,54.945C268.831,55.152 267.579,54.629 267.263,54.945C266.293,55.915 263.428,54.969 262.035,55.666C261.534,55.917 259.886,55.471 259.511,55.846C259.092,56.265 257.39,56.26 256.626,56.387C254.641,56.718 251.416,57.315 249.97,57.315C249.145,57.315 247.344,57.196 246.891,57.649C246.492,58.048 244.598,57.418 244.187,57.829C243.423,58.594 242.389,57.917 241.483,58.37C239.323,59.45 235.687,58.397 234.091,59.993C233.774,60.31 232.426,60.035 232.108,60.353C230.796,61.666 227.912,61.467 226.159,62.697C225.964,62.834 225.236,62.718 225.077,62.877C223.312,64.643 219.185,64.578 217.686,66.303C217.309,66.736 215.719,66.286 215.342,66.663C214.663,67.342 213.126,68.763 212.277,69.187C211.908,69.371 208.411,71.09 209.573,72.252C210.736,73.415 207.738,73.618 209.422,74.46C210.412,74.955 216.983,74.415 218.407,74.415C220.134,74.415 222.609,74.776 224.536,74.776C228.36,74.776 232.328,74.956 236.255,74.956C242.823,74.956 248.881,74.776 255.364,74.776C260.471,74.776 265.154,74.929 270.341,74.929C270.732,74.929 270.365,75.162 270.508,75.317C270.894,75.734 272.634,75.304 273.212,75.497C274.14,75.806 275.409,75.67 275.917,76.218C276.184,76.507 277.347,76.032 277.719,76.218C278.582,76.649 279.636,77.119 280.784,77.119" style="fill:none;stroke:white;stroke-width:37.13px;"/>
            </g>
            <g transform="matrix(1.0401,0,0,1.05417,-3.0076,3.88964)">
                <path d="M4.654,7.063C4.654,13.058 4.826,19.059 4.826,25.016L4.826,29.311C4.826,29.723 4.765,30.599 5.256,30.599" style="fill:none;stroke:black;stroke-width:0.9px;"/>
            </g>
            <g transform="matrix(1.0401,0,0,1.05417,3.88022,4.28755)">
                <path d="M3.133,5.134C3.32,4.947 3.974,4.827 4.23,4.827C5.046,4.827 9.896,4.83 10.753,4.83L20.546,4.83C24.217,4.83 27.803,4.777 31.369,5.173C32.17,5.262 34.015,5.034 34.461,5.517C34.596,5.663 35.129,5.421 35.32,5.517C36.2,5.957 37.499,5.426 38.241,5.946C38.332,6.01 38.594,5.87 38.67,5.946C38.992,6.268 38.924,7.186 39.272,7.493C39.717,7.884 39.688,9.032 39.688,9.739C39.688,9.912 39.805,9.749 39.873,9.812C39.996,9.925 39.873,10.638 39.873,10.843L39.873,14.279C39.873,16.441 39.373,19.478 40.045,21.494C40.206,21.979 39.956,22.65 40.131,23.126C40.416,23.905 40.35,24.861 40.56,25.703C41.025,27.563 41.333,29.47 41.333,31.373" style="fill:none;stroke:black;stroke-width:0.9px;"/>
            </g>
            <g transform="matrix(1.0401,0,0,1.05417,-2.8612,4.43297)">
                <path d="M7.833,31.544C9.267,31.544 10.602,31.531 11.956,31.802C12.941,31.999 14.128,31.667 15.048,31.974C15.518,32.131 16.173,31.974 16.68,31.974L20.717,31.974C25.002,31.974 29.228,31.965 33.431,31.544C36.272,31.26 39.134,31.029 42.02,31.029C42.932,31.029 43.931,30.771 44.855,30.771C45.058,30.771 45.916,30.827 46.058,30.685C46.195,30.548 46.022,30.407 45.886,30.428" style="fill:none;stroke:black;stroke-width:0.9px;"/>
            </g>
            <g transform="matrix(0.226719,0,0,0.395315,-32.8405,-0.756016)">
                <path d="M204.359,29.367C204.359,35.486 203.948,42.949 203.948,49.356C203.948,51.873 203.552,55.486 204.525,57.433C204.919,58.221 204.063,60.432 204.669,61.038C204.755,61.124 204.759,62.309 204.813,62.336C205.467,62.663 204.915,63.55 205.246,64.211C205.801,65.32 206.059,66.991 206.544,67.961C207.144,69.161 207.696,69.832 208.131,70.701C208.238,70.915 209.462,70.718 209.717,70.846C212.018,71.996 215.48,70.488 217.073,69.692C218.169,69.144 220.306,70.064 221.111,69.259C221.395,68.975 221.03,67.857 221.399,67.673C222.242,67.251 222.801,65.014 223.274,64.067C223.5,63.615 223.221,62.246 223.563,61.904C224.158,61.309 223.665,59.927 224.14,59.452C224.356,59.235 224.068,58.514 224.284,58.298C225.206,57.376 224.861,53.733 224.861,52.241C224.861,50.048 224.897,47.588 224.284,45.75C223.671,43.912 224.284,40.784 224.284,38.828C224.284,34.687 224.161,34.383 224.161,30.088" style="fill:none;stroke:black;stroke-width:2.91px;"/>
            </g>
            <g transform="matrix(0.390038,0,0,0.395315,-75.2989,-0.812834)">
                <path d="M215.054,72.865C215.882,73.694 215.342,77.298 215.342,78.634C215.342,83.697 215.63,88.771 215.63,93.922" style="fill:none;stroke:black;stroke-width:2.39px;"/>
            </g>
            <g transform="matrix(0.390038,0,0,0.395315,-69.142,-0.812834)">
                <path d="M215.054,73.586C215.882,74.415 215.342,77.298 215.342,78.634C215.342,83.697 215.45,89.852 215.45,95.003" style="fill:none;stroke:black;stroke-width:2.39px;"/>
            </g>
            <g transform="matrix(0.390038,0,0,0.395315,-70.8881,-0.504988)">
                <path d="M234.524,28.732C234.524,35.49 234.257,42.02 234.257,48.646C234.257,48.926 233.925,48.654 233.925,48.913C233.925,50.547 233.803,52.243 233.803,53.827C233.803,54.35 233.94,55.42 233.659,55.702C233.444,55.917 233.659,57.526 233.659,57.865C233.659,60.237 233.947,62.474 233.947,64.644C233.947,73.816 234.091,82.945 234.091,92.047" style="fill:none;stroke:black;stroke-width:2.39px;"/>
            </g>
            <g transform="matrix(0.390038,0,0,0.395315,-72.7479,-0.535967)">
                <path d="M247.072,28.588C247.072,34.801 247.36,41.553 247.36,48.058C247.36,50.301 248.063,53.882 247.36,55.99C246.931,57.277 246.783,58.958 246.783,60.317C246.783,64.618 246.492,70.195 249.523,71.711C250.413,72.156 251.165,70.935 251.543,70.557C252.519,69.581 253.992,69.406 255.004,68.394C255.802,67.596 255.524,65.652 256.302,64.932C256.435,64.81 256.3,64.069 256.446,63.923C256.995,63.374 256.749,62.019 257.167,61.183C258.669,58.178 258.158,54.217 258.158,50.651C258.158,49.797 258.397,47.186 258.754,46.472C258.984,46.011 258.754,44.832 258.754,44.308C258.754,43.036 258.898,41.199 258.898,39.693C258.898,35.737 259.475,31.459 259.475,27.145" style="fill:none;stroke:black;stroke-width:2.39px;"/>
            </g>
            <g transform="matrix(0.34019,0,0,0.395315,-54.9299,-0.26557)">
                <path d="M267.84,30.03C267.84,32.979 267.995,36.562 268.705,39.405C269.068,40.854 268.489,43.033 269.282,44.164C269.461,44.418 269.282,45.294 269.282,45.606C269.282,46.76 269.426,47.893 269.426,49.068C269.426,53.426 269.571,57.685 269.571,62.048L269.571,69.403C269.571,70.766 269.564,71.996 270.436,72.432C271.396,72.912 273.031,72.847 274.042,73.586C274.421,73.863 275.344,73.372 275.772,73.586C276.026,73.713 277.477,73.959 277.936,73.73C279.005,73.196 279.852,71.619 280.532,70.99C281.458,70.133 282.538,69.285 283.128,68.105C283.5,67.361 283.201,66.227 283.705,65.509C283.891,65.243 283.705,64.12 283.705,63.779C283.705,62.269 283.232,59.862 283.705,58.442C284.346,56.518 283.993,53.604 283.993,51.519L283.993,28.443" style="fill:none;stroke:black;stroke-width:2.54px;"/>
            </g>
            <g transform="matrix(0.390038,0,0,0.395315,-72.7479,-0.535967)">
                <path d="M251.254,72.432C252.157,73.335 251.543,77.289 251.543,78.634C251.543,84.505 252.264,90.288 252.264,95.652" style="fill:none;stroke:black;stroke-width:2.39px;"/>
            </g>
            <g transform="matrix(0.390038,0,0,0.395315,-66.4763,-0.535967)">
                <path d="M247.418,27.088C247.418,33.301 247.36,41.553 247.36,48.058C247.36,50.301 248.063,53.882 247.36,55.99C246.931,57.277 246.783,58.958 246.783,60.317C246.783,64.618 246.492,70.195 249.523,71.711C250.413,72.156 251.886,72.81 252.264,72.432C253.24,71.456 253.992,69.406 255.004,68.394C255.802,67.596 255.524,65.652 256.302,64.932C256.435,64.81 256.3,64.069 256.446,63.923C256.995,63.374 256.749,62.019 257.167,61.183C258.669,58.178 258.158,54.217 258.158,50.651C258.158,49.797 258.397,47.186 258.754,46.472C258.984,46.011 258.754,44.832 258.754,44.308C258.754,43.036 258.898,41.199 258.898,39.693C258.898,35.737 258.552,32.151 258.552,27.838" style="fill:none;stroke:black;stroke-width:2.39px;"/>
            </g>
            <g transform="matrix(0.390038,0,0,0.395315,-66.4763,-0.535967)">
                <path d="M251.254,72.432C252.157,73.335 251.543,77.289 251.543,78.634C251.543,84.505 252.264,90.288 252.264,95.652" style="fill:none;stroke:black;stroke-width:2.39px;"/>
            </g>
            <g transform="matrix(0.390038,0,0,0.395315,-68.5306,-0.399482)">
                <path d="M275.34,74.163C275.34,75.612 275.792,77.314 275.792,78.486C275.792,83.234 275.628,87.711 275.628,92.335" style="fill:none;stroke:black;stroke-width:2.39px;"/>
            </g>
            <g transform="matrix(0.298202,0,0,0.405372,-48.1138,-0.837974)">
                <path d="M216.721,28.84C215.642,28.065 208.959,30.641 209.717,33.491C209.79,33.766 208.644,34.725 208.996,35.078C209.267,35.349 210.314,34.916 210.583,34.934C210.77,34.946 211.669,34.568 211.736,34.501C211.881,34.357 212.457,34.645 212.602,34.501C213.098,34.005 214.458,34.417 215.198,33.924C215.779,33.537 217.021,34.094 217.65,33.78C218.13,33.539 219.236,33.491 219.236,33.491C219.236,33.491 218.488,34.01 218.082,34.212C217.424,34.542 216.763,35.304 215.775,35.799C213.379,36.996 211.159,38.412 211.159,42.001C211.159,42.342 210.505,42.855 210.727,43.299C210.788,43.421 212.158,43.088 212.313,43.01C213.592,42.371 215.382,41.836 216.784,41.135C216.902,41.076 218.921,40.506 219.092,40.847C219.373,41.409 218.283,42.377 217.938,42.722C216.209,44.45 213.064,47.183 210.871,47.914C210.592,48.007 208.729,50.099 209.284,50.654C209.432,50.802 211.786,50.46 211.881,50.366C212.091,50.155 213.926,50.313 214.044,50.077C214.359,49.448 214.736,50.092 215.342,49.789C216.419,49.25 218.337,49.356 219.524,49.356C219.549,49.356 218.982,49.988 218.803,50.077C218.516,50.221 218.297,54.392 217.924,54.765C216.444,56.244 210.867,53.134 209.287,54.188C208.324,54.83 210.343,57.528 209.861,58.01C209.841,58.03 209.801,59.111 209.861,59.163C210.167,59.429 210.16,59.75 210.438,60.029C210.825,60.415 212.634,60.173 213.323,60.173C213.491,60.173 214.513,60.281 214.621,60.173C215.396,59.398 214.246,62.279 212.89,63.634C212.844,63.681 211.731,65.218 212.025,65.365C212.916,65.81 214.567,64.605 214.909,64.211C215.04,64.061 216.138,64.211 216.352,64.211C217.023,64.211 217.942,63.923 218.948,63.923" style="fill:none;stroke:black;stroke-width:5.65px;"/>
            </g>
            <g transform="matrix(0.217094,0,0,0.395315,-38.0188,-0.179625)">
                <path d="M204.669,30.607C204.669,36.726 203.948,42.949 203.948,49.356C203.948,51.873 203.552,55.486 204.525,57.433C204.919,58.221 204.063,60.432 204.669,61.038C204.755,61.124 204.759,62.309 204.813,62.336C205.467,62.663 204.915,63.55 205.246,64.211C205.801,65.32 206.059,66.991 206.544,67.961C207.144,69.161 207.696,69.832 208.131,70.701C208.238,70.915 209.462,70.718 209.717,70.846C212.018,71.996 215.48,70.488 217.073,69.692C218.169,69.144 220.306,70.064 221.111,69.259C221.395,68.975 221.03,67.857 221.399,67.673C222.242,67.251 222.801,65.014 223.274,64.067C223.5,63.615 223.221,62.246 223.563,61.904C224.158,61.309 223.665,59.927 224.14,59.452C224.356,59.235 224.068,58.514 224.284,58.298C225.206,57.376 224.861,53.733 224.861,52.241C224.861,50.048 224.897,47.588 224.284,45.75C223.671,43.912 224.284,40.784 224.284,38.828C224.284,34.687 223.851,31.441 223.851,27.145" style="fill:none;stroke:black;stroke-width:2.94px;"/>
            </g>
            <g transform="matrix(0.312957,0,0,0.395315,-58.5165,-0.179625)">
                <path d="M212.746,30.03C212.746,31.041 210.235,32.753 209.717,33.491C209.554,33.724 208.644,34.725 208.996,35.078C209.267,35.349 210.314,34.916 210.583,34.934C210.77,34.946 211.669,34.568 211.736,34.501C211.881,34.357 212.457,34.645 212.602,34.501C213.098,34.005 214.458,34.417 215.198,33.924C215.779,33.537 217.021,34.094 217.65,33.78C218.13,33.539 219.236,33.491 219.236,33.491C219.236,33.491 218.488,34.01 218.082,34.212C217.424,34.542 216.763,35.304 215.775,35.799C213.379,36.996 211.159,38.412 211.159,42.001C211.159,42.342 210.505,42.855 210.727,43.299C210.788,43.421 212.158,43.088 212.313,43.01C213.592,42.371 215.382,41.836 216.784,41.135C216.902,41.076 218.921,40.506 219.092,40.847C219.373,41.409 218.283,42.377 217.938,42.722C216.209,44.45 213.064,47.183 210.871,47.914C210.592,48.007 208.729,50.099 209.284,50.654C209.432,50.802 211.786,50.46 211.881,50.366C212.091,50.155 213.926,50.313 214.044,50.077C214.359,49.448 214.736,50.092 215.342,49.789C216.419,49.25 218.337,49.356 219.524,49.356C219.549,49.356 218.982,49.988 218.803,50.077C218.516,50.221 217.59,51.147 217.217,51.519C215.737,52.999 213.461,54.937 211.881,55.99C210.917,56.633 210.343,57.528 209.861,58.01C209.841,58.03 209.801,59.111 209.861,59.163C210.167,59.429 210.16,59.75 210.438,60.029C210.825,60.415 212.634,60.173 213.323,60.173C213.491,60.173 214.513,60.281 214.621,60.173C215.396,59.398 216.746,58.875 217.794,58.875C218.009,58.875 218.726,58.509 218.948,58.731C219.48,59.263 217.829,59.993 217.65,60.173C216.318,61.504 214.246,62.279 212.89,63.634C212.844,63.681 211.731,65.218 212.025,65.365C212.916,65.81 214.567,64.605 214.909,64.211C215.04,64.061 216.138,64.211 216.352,64.211C217.023,64.211 217.942,63.923 218.948,63.923" style="fill:none;stroke:black;stroke-width:5.64px;"/>
            </g>
            <g transform="matrix(0.350446,0,0,0.395315,-57.7919,-0.504988)">
                <path d="M274.33,30.03C273.842,31.007 272.38,32.125 271.734,32.77C271.48,33.024 270.092,34.59 270.58,35.078C271.02,35.517 272.271,35.366 272.888,35.366C274.062,35.366 276.7,35.16 277.503,34.357C277.795,34.064 278.587,34.283 278.945,33.924C279.077,33.792 281.595,33.545 281.83,33.78C281.977,33.927 280.894,34.283 280.82,34.357C279.96,35.217 279.168,35.759 277.936,36.376C276.305,37.191 279.128,39.818 277.647,40.558C277.279,40.743 273.067,41.821 272.744,42.145C272.543,42.346 271.652,44.514 272.167,45.029C273.115,45.977 276.624,46.983 278.801,45.895C279.002,45.794 280.301,46.067 280.388,45.895C280.561,45.548 279.725,46.298 279.378,46.472C278.679,46.821 278.315,47.855 277.503,48.346C276.191,49.141 274.959,50.772 273.465,51.519C273.242,51.631 272.281,52.628 272.599,53.106C273.197,54.002 274.15,54.189 274.474,54.837C274.595,55.077 276.331,54.971 276.638,55.125C276.792,55.202 278.556,55.241 278.657,55.125C278.687,55.09 278.67,54.561 278.945,54.837C278.97,54.862 277.625,56.199 277.503,56.279C275.623,57.503 272.819,58.511 271.301,60.029C270.735,60.595 272.153,62.041 272.455,62.192C273.636,62.783 275.968,62.481 277.503,62.481C277.836,62.481 279.388,62.605 279.522,62.336C279.59,62.2 279.666,61.904 279.666,61.904C279.666,61.904 279.884,62.58 279.666,62.769C279.35,63.044 279.377,63.347 279.09,63.634C278.42,64.303 276.916,66.236 276.061,66.663C275.837,66.775 274.061,68.701 274.33,68.971C274.949,69.59 281.109,70.539 281.109,68.971" style="fill:none;stroke:black;stroke-width:6.24px;"/>
            </g>
            <g transform="matrix(0.390038,0,0,0.395315,-72.7479,-0.535967)">
                <path d="M254.139,28.732C253.084,30.84 250.632,30.796 249.668,31.761C249.595,31.833 249.083,32.474 249.379,32.77C249.972,33.363 253.261,32.914 254.283,32.914L256.735,32.914C256.735,32.914 255.843,33.793 255.292,34.068C253.566,34.931 251.896,36.99 250.533,38.251C250.456,38.322 250.215,39.952 250.389,40.126C250.609,40.346 250.713,41.153 250.966,41.279C251.641,41.617 252.954,41.355 253.417,41.856C253.823,42.294 255.589,41.432 256.014,41.856C256.193,42.036 254.484,43.502 254.139,44.02C253.795,44.536 253.188,45.36 252.696,45.606C252.253,45.828 251.897,47.827 251.543,48.346C251.248,48.778 250.429,49.726 250.821,50.51C251.213,51.294 253.196,51.231 254.427,51.231C254.637,51.231 255.737,51.099 255.869,51.231C256.013,51.375 254.776,52.469 254.571,52.673C254.059,53.186 252.894,54.098 251.975,54.404C250.979,54.736 250.621,56.162 249.812,56.567C249.368,56.789 250.206,58.401 250.244,58.442C250.894,59.141 253.767,58.731 254.86,58.731C255.105,58.731 254.344,58.741 254.139,58.875C253.753,59.126 253.811,59.255 253.417,59.452C252.73,59.795 251.206,61.326 250.966,62.048C250.889,62.278 250.945,66.209 251.1,66.364C251.247,66.511 253.85,64.937 253.85,64.5" style="fill:none;stroke:black;stroke-width:5.93px;"/>
            </g>
            <g transform="matrix(-0.390029,0.00270873,-0.00267257,-0.395306,130.638,36.2406)">
                <path d="M253.932,27.923C252.878,30.031 250.632,30.796 249.668,31.761C249.595,31.833 249.083,32.474 249.379,32.77C249.972,33.363 253.261,32.914 254.283,32.914L256.735,32.914C256.735,32.914 255.843,33.793 255.292,34.068C253.566,34.931 251.896,36.99 250.533,38.251C250.456,38.322 250.215,39.952 250.389,40.126C250.609,40.346 250.713,41.153 250.966,41.279C251.641,41.617 252.954,41.355 253.417,41.856C253.823,42.294 255.589,41.432 256.014,41.856C256.193,42.036 254.484,43.502 254.139,44.02C253.795,44.536 253.188,45.36 252.696,45.606C252.253,45.828 251.897,47.827 251.543,48.346C251.248,48.778 250.429,49.726 250.821,50.51C251.213,51.294 253.196,51.231 254.427,51.231C254.637,51.231 255.737,51.099 255.869,51.231C256.013,51.375 254.776,52.469 254.571,52.673C254.059,53.186 252.894,54.098 251.975,54.404C250.979,54.736 250.621,56.162 249.812,56.567C249.368,56.789 250.206,58.401 250.244,58.442C250.894,59.141 253.767,58.731 254.86,58.731C255.105,58.731 254.344,58.741 254.139,58.875C253.753,59.126 253.811,59.255 253.417,59.452C252.73,59.795 251.206,61.326 250.966,62.048C250.889,62.278 250.811,64.057 250.966,64.211C251.113,64.359 253.85,64.937 253.85,64.5" style="fill:none;stroke:black;stroke-width:5.93px;"/>
            </g>
        </g>
    </g>
</svg>
